<?xml version="1.0"?>
<svg xmlns="http://www.w3.org/2000/svg" xmlns:xlink="http://www.w3.org/1999/xlink" version="1.1" id="Capa_1" x="0px" y="0px" viewBox="0 0 58 58" style="enable-background:new 0 0 58 58;" xml:space="preserve" width="512px" height="512px" class=""><g><path style="fill:#805333;" d="M54.142,55H3.858C1.727,55,0,53.273,0,51.142V17.858C0,15.727,1.727,14,3.858,14h50.284  C56.273,14,58,15.727,58,17.858v33.284C58,53.273,56.273,55,54.142,55z" data-original="#805333" class=""/><rect x="10" y="11" style="fill:#CB8252;" width="6" height="44" data-original="#CB8252" class=""/><rect x="42" y="11" style="fill:#CB8252;" width="6" height="44" data-original="#CB8252" class=""/><path style="fill:#BDC3C7;" d="M29,3c-5.514,0-10,4.486-10,10v1h4v-1c0-3.3,2.7-6,6-6s6,2.7,6,6v1h4v-1C39,7.486,34.514,3,29,3z" data-original="#BDC3C7" class=""/><rect x="19.64" y="36.487" transform="matrix(0.9213 0.3888 -0.3888 0.9213 17.2675 -6.2962)" style="fill:#71C285;" width="9.105" height="6.07" data-original="#71C285"/><polygon style="fill:#E1705C;" points="23,30 23,35.725 29.567,38.496 28.932,40 38,40 38,30 " data-original="#E1705C"/><polygon style="fill:#F0C419;" points="35.556,30 38,28.859 34.536,21.44 23.408,26.636 24.978,30 " data-original="#F0C419"/><path style="fill:#E4C05C" d="M58,20.86v-3.002C58,15.727,56.273,14,54.142,14H51.14C51.763,17.49,54.51,20.237,58,20.86z" data-original="#E4C05C" class="active-path"/><path style="fill:#E4C05C" d="M58,51.142V48.14c-3.49,0.623-6.237,3.37-6.86,6.86h3.002C56.273,55,58,53.273,58,51.142z" data-original="#E4C05C" class="active-path"/><path style="fill:#E4C05C" d="M0,20.86c3.49-0.623,6.237-3.37,6.86-6.86H3.858C1.727,14,0,15.727,0,17.858V20.86z" data-original="#E4C05C" class="active-path"/><path style="fill:#E4C05C" d="M0,48.14v3.002C0,53.273,1.727,55,3.858,55H6.86C6.237,51.51,3.49,48.763,0,48.14z" data-original="#E4C05C" class="active-path"/></g> </svg>
