<?xml version="1.0" encoding="utf-8"?>
<!-- Generator: Adobe Illustrator 21.1.0, SVG Export Plug-In . SVG Version: 6.00 Build 0)  -->
<svg version="1.1" id="Layer_1" xmlns="http://www.w3.org/2000/svg" xmlns:xlink="http://www.w3.org/1999/xlink" x="0px" y="0px"
	 viewBox="0 0 500 500" style="enable-background:new 0 0 500 500;" xml:space="preserve">
<style type="text/css">
	.st0{fill:url(#SVGID_1_);}
	.st1{fill:#FFFFFF;}
</style>
<g>
	<linearGradient id="SVGID_1_" gradientUnits="userSpaceOnUse" x1="18.7815" y1="250.3124" x2="482.1439" y2="250.3124">
		<stop  offset="5.779510e-03" style="stop-color:#BC7521"/>
		<stop  offset="0.5277" style="stop-color:#F0B74C"/>
		<stop  offset="0.9841" style="stop-color:#F0B74C"/>
	</linearGradient>
	<path class="st0" d="M482.1,386.8c0,52.5-42.6,95.2-95.2,95.2H114c-52.6,0-95.2-42.6-95.2-95.2v-273c0-52.6,42.6-95.2,95.2-95.2
		h273c52.5,0,95.2,42.6,95.2,95.2V386.8z"/>
	<g>
		<path class="st1" d="M317.5,75.6H183.4c-59.5,0-107.7,48.2-107.7,107.7v134.1c0,59.5,48.2,107.7,107.7,107.7h134.1
			c59.5,0,107.7-48.2,107.7-107.7V183.3C425.2,123.8,377,75.6,317.5,75.6z M391.6,304.5c0,48.1-39,87-87,87H196.3
			c-48.1,0-87-38.9-87-87V196.1c0-48,39-87,87-87h108.4c48,0,87,39,87,87V304.5z"/>
		<path class="st1" d="M255.1,158.9c-50.8,0-92.1,41.2-92.1,92c0,50.8,41.2,92,92.1,92c50.8,0,92-41.2,92-92
			C347.2,200.1,306,158.9,255.1,158.9z M255.1,306.3c-30.6,0-55.4-24.8-55.4-55.4c0-30.6,24.8-55.4,55.4-55.4
			c30.6,0,55.4,24.8,55.4,55.4C310.5,281.5,285.7,306.3,255.1,306.3z"/>
		<path class="st1" d="M361.1,159c0,12.1-9.8,21.8-21.8,21.8c-12.1,0-21.8-9.8-21.8-21.8c0-12.1,9.8-21.8,21.8-21.8
			C351.3,137.2,361.1,147,361.1,159z"/>
	</g>
</g>
</svg>
